<?xml version="1.0" standalone="no"?>
<!DOCTYPE svg PUBLIC "-//W3C//DTD SVG 20010904//EN"
 "http://www.w3.org/TR/2001/REC-SVG-20010904/DTD/svg10.dtd">
<svg version="1.0" xmlns="http://www.w3.org/2000/svg"
 width="256.000000pt" height="256.000000pt" viewBox="0 0 256.000000 256.000000"
 preserveAspectRatio="xMidYMid meet">
<metadata>
Created by potrace 1.11, written by Peter Selinger 2001-2013
</metadata>
<g transform="translate(0.000000,256.000000) scale(0.100000,-0.100000)"
fill="#000000" stroke="none">
<path d="M0 1280 l0 -1280 492 0 c403 0 489 2 474 13 -15 11 -12 12 22 9 22
-2 50 1 62 8 17 9 21 9 15 0 -4 -6 -17 -15 -29 -20 -12 -5 187 -9 469 -9 l491
-1 22 38 c32 52 112 221 112 235 1 29 16 38 43 26 22 -10 27 -19 27 -46 0 -18
7 -50 16 -71 9 -22 15 -67 15 -109 l0 -73 107 1 c59 0 101 3 94 6 -19 7 -82
113 -68 113 3 0 14 -16 26 -36 29 -46 90 -84 135 -84 l35 0 0 1280 0 1280
-335 0 c-184 0 -335 -2 -335 -4 0 -3 9 -20 20 -39 12 -19 25 -61 30 -92 5 -32
21 -74 34 -94 22 -31 52 -98 70 -153 6 -19 36 -25 36 -7 0 5 4 7 10 4 11 -7 3
-176 -10 -215 -8 -22 -17 -106 -19 -177 -2 -47 -17 -20 -40 70 -31 118 -44
141 -37 62 l6 -60 -25 60 -26 60 6 -55 c6 -58 7 -58 -30 1 -5 9 -18 28 -29 42
-23 33 -35 130 -25 200 35 243 35 300 -1 310 -14 4 -20 14 -20 34 0 50 -10 53
-197 53 l-174 0 18 -24 c10 -13 32 -33 48 -45 70 -48 95 -79 95 -115 0 -36 0
-36 -45 -36 -31 0 -47 -5 -51 -15 -4 -10 -20 -15 -45 -15 l-39 0 -1 -52 c-3
-80 -3 -86 -11 -94 -5 -4 -8 -19 -8 -33 0 -49 -11 -68 -43 -78 -56 -17 -100
-6 -125 33 -12 18 -39 42 -60 53 -21 11 -58 36 -81 55 -24 20 -44 36 -46 36
-2 0 -19 -9 -37 -19 -18 -11 -49 -23 -69 -26 -32 -6 -39 -3 -55 20 -11 15 -31
42 -46 60 -33 39 -33 40 -8 72 11 14 20 29 20 34 0 4 -19 14 -42 22 l-43 15
35 1 c63 1 124 -19 147 -47 17 -21 24 -24 34 -15 10 10 10 15 -1 27 -10 13
-10 17 3 22 8 3 13 13 10 22 -3 12 8 24 34 39 36 21 37 23 12 23 -15 0 -32 7
-39 15 -7 8 -22 15 -34 15 -20 0 -20 -1 3 -19 l24 -19 -74 -12 c-102 -16 -159
-29 -194 -45 -62 -27 -83 -30 -77 -12 6 19 -29 4 -47 -20 -12 -16 -26 -34 -31
-40 -6 -7 -7 -13 -3 -13 4 0 3 -4 -2 -8 -6 -4 -16 -23 -23 -44 -7 -20 -35 -71
-63 -113 -94 -143 -113 -207 -138 -486 -8 -95 -6 -126 13 -209 5 -19 3 -17 -9
7 -8 17 -17 58 -20 90 -2 32 -10 85 -16 118 -21 118 -21 143 -4 222 17 77 105
324 141 395 11 20 30 42 44 49 14 6 33 15 42 20 10 5 24 9 32 9 8 0 17 4 21 9
3 6 -9 7 -31 4 -27 -4 -35 -3 -30 5 4 7 18 12 31 12 13 0 27 5 31 12 5 7 2 9
-9 5 -8 -3 -32 -9 -51 -13 -20 -3 -39 -10 -42 -15 -9 -15 -24 -10 -24 9 0 23
19 42 43 42 15 0 18 5 14 21 -4 15 4 27 33 47 22 15 39 30 40 35 0 4 -139 7
-310 7 l-310 0 0 -1280z m831 631 c19 -4 49 -14 66 -21 26 -12 30 -19 30 -52
l0 -38 -54 0 c-30 0 -63 5 -74 10 -13 8 -25 7 -40 0 -25 -14 -41 -2 -17 13 14
10 14 13 -8 30 -44 34 -19 84 36 72 14 -3 41 -9 61 -14z m669 5 c0 -2 -7 -7
-16 -10 -8 -3 -12 -2 -9 4 6 10 25 14 25 6z m680 -304 c0 -15 -9 -52 -21 -82
-12 -30 -24 -74 -28 -98 -10 -52 -16 -60 -31 -33 -14 28 -10 103 6 97 13 -5
34 34 34 63 0 27 21 81 31 81 5 0 9 -12 9 -28z m-1510 -22 c-11 -20 -30 -28
-30 -12 0 11 22 32 32 32 5 0 4 -9 -2 -20z m746 -38 c-10 -10 -29 15 -21 28 6
9 10 8 17 -4 6 -10 7 -20 4 -24z m-1079 6 c-3 -8 -6 -5 -6 6 -1 11 2 17 5 13
3 -3 4 -12 1 -19z m703 -24 c0 -27 4 -34 19 -34 11 0 21 -6 24 -12 3 -10 9 -8
24 5 11 9 26 17 34 17 17 0 -21 -40 -42 -43 -8 -2 -19 -6 -26 -10 -6 -4 -14
-3 -18 3 -3 5 -22 10 -42 10 -35 0 -36 0 -30 36 6 39 34 77 48 68 5 -3 9 -21
9 -40z m90 36 c0 -5 -5 -10 -11 -10 -7 0 -22 -12 -35 -27 -27 -32 -34 -12 -8
25 15 22 54 31 54 12z m-413 -72 c-3 -8 -6 -5 -6 6 -1 11 2 17 5 13 3 -3 4
-12 1 -19z m1017 6 c20 -8 21 -63 2 -70 -24 -9 -56 15 -56 41 0 29 22 41 54
29z m-51 -75 c4 -14 -2 -27 -20 -42 -53 -47 -83 -39 -69 18 11 42 80 61 89 24z
m-1123 -24 c0 -8 -51 -55 -60 -55 -5 0 -11 -8 -13 -17 -4 -14 -5 -12 -6 5 -1
13 5 22 14 22 8 0 15 6 15 13 0 17 20 37 37 37 7 0 13 -2 13 -5z m535 -22 c25
-29 33 -63 14 -63 -5 0 -8 -4 -5 -9 7 -10 -115 -21 -127 -11 -4 4 -2 24 5 46
10 28 18 38 31 36 10 -2 24 4 33 13 20 20 21 20 49 -12z m-495 -44 c0 -5 -7
-9 -15 -9 -15 0 -20 12 -9 23 8 8 24 -1 24 -14z m-170 -8 c0 -6 -4 -13 -10
-16 -5 -3 -10 1 -10 9 0 9 5 16 10 16 6 0 10 -4 10 -9z m843 2 c3 -5 -19 -8
-48 -8 -29 0 -51 3 -48 8 2 4 24 7 48 7 24 0 46 -3 48 -7z m125 -294 c18 -18
38 -42 44 -53 l11 -21 -23 20 c-47 40 -100 93 -100 99 0 11 33 -11 68 -45z
m-472 5 c-5 -14 -4 -15 9 -4 12 10 15 9 17 -6 0 -11 0 -29 -1 -42 -1 -12 5
-25 14 -28 22 -9 19 -23 -4 -17 -10 3 -23 14 -29 26 -9 19 -11 16 -11 -21 -1
-27 -5 -41 -11 -37 -14 9 2 145 16 145 3 0 3 -7 0 -16z m-172 -40 l-6 -35 28
26 c17 16 30 22 32 15 3 -7 11 -5 23 6 19 17 20 17 13 0 -7 -18 -6 -18 18 -2
l25 17 -2 -50 c-2 -36 -10 -56 -26 -73 -12 -13 -20 -16 -17 -8 13 39 19 64 11
54 -4 -6 -17 -14 -28 -18 -11 -4 -29 -18 -39 -33 -17 -23 -17 -26 -3 -20 26
10 20 -6 -13 -41 -16 -18 -30 -29 -30 -26 0 4 -7 1 -15 -6 -9 -7 -14 -18 -12
-24 2 -6 -5 -19 -15 -30 -17 -18 -23 -38 -19 -60 1 -4 -4 -14 -10 -22 -9 -11
-9 -14 1 -14 7 0 10 -8 7 -19 -4 -17 -2 -18 20 -8 19 8 26 8 32 -2 7 -10 12
-8 24 9 l15 21 20 -29 c12 -16 40 -42 64 -58 24 -16 52 -37 62 -46 11 -10 22
-18 25 -19 46 -6 140 -48 141 -63 0 -4 -7 -5 -16 -2 -12 4 -15 2 -11 -9 4 -8
2 -17 -4 -20 -5 -4 -12 1 -15 9 -9 22 -51 20 -59 -3 -6 -20 3 -51 15 -51 4 0
5 11 3 24 -3 13 0 27 6 30 6 4 11 3 11 -2 0 -5 11 -14 25 -20 14 -7 30 -22 35
-34 l9 -23 0 22 c1 12 6 25 11 28 6 3 7 17 4 31 -5 20 -2 24 15 24 18 0 21 -6
21 -41 0 -22 -4 -48 -10 -58 -11 -22 2 -117 19 -134 8 -8 10 18 8 104 l-2 114
43 -2 c34 -2 50 3 70 23 15 13 30 24 35 24 4 0 17 -16 29 -36 15 -25 23 -32
29 -23 4 8 0 24 -12 40 -24 34 -24 48 -2 65 13 9 22 9 30 2 10 -8 13 -6 13 6
0 9 -1 17 -2 19 -7 10 25 45 40 42 22 -4 172 -154 172 -172 0 -22 -19 -14 -34
15 -13 25 -76 89 -76 77 0 -3 9 -25 20 -48 l21 -42 -23 25 c-13 14 -30 25 -38
24 -8 0 -21 4 -27 9 -10 7 -13 3 -13 -13 0 -19 -2 -20 -15 -10 -33 27 -40 -60
-19 -252 4 -40 2 -48 -11 -48 -13 0 -15 -7 -10 -33 5 -24 4 -28 -4 -17 -6 8
-11 24 -11 35 0 11 -5 27 -10 35 -8 11 -9 -4 -5 -50 7 -88 -11 -33 -21 62 -7
75 -19 88 -30 31 -4 -21 -13 -47 -20 -57 -12 -17 -14 -18 -19 -3 -4 8 -13 13
-21 10 -8 -3 -14 1 -14 10 0 8 -7 21 -16 28 -15 13 -17 11 -12 -19 4 -25 1
-32 -13 -32 -9 0 -22 7 -29 15 -8 9 -16 12 -19 6 -3 -5 -15 -11 -26 -13 -15
-2 -20 3 -22 22 -3 56 -3 56 -14 37 -6 -10 -8 -25 -4 -34 3 -9 1 -19 -5 -23
-7 -5 6 -30 37 -71 67 -87 72 -97 37 -72 -16 12 -51 59 -79 105 -27 45 -58 91
-67 100 -10 10 -18 22 -18 27 0 10 -38 7 -48 -4 -3 -2 -9 -22 -13 -42 -7 -32
-8 -28 -5 24 1 37 -2 59 -7 56 -6 -4 -7 6 -3 23 19 85 19 94 2 94 -18 0 -35
-33 -47 -95 -7 -34 -8 -31 -5 23 3 77 -15 58 -26 -28 -5 -40 -6 -27 -4 47 3
110 -7 129 -19 36 -6 -53 -8 -56 -21 -38 -13 17 -16 18 -25 5 -9 -12 -10 -10
-6 7 3 13 1 23 -4 23 -11 0 -12 -10 -10 -75 1 -41 0 -47 -10 -31 -7 12 -9 43
-5 90 5 49 4 66 -4 56 -7 -11 -10 -11 -10 -2 0 7 -5 10 -10 7 -6 -3 -10 -15
-10 -25 0 -10 -6 -23 -14 -27 -7 -4 -20 -21 -28 -36 -14 -27 -14 -27 -12 25 0
29 8 80 17 112 13 47 14 63 5 75 -7 9 -14 18 -15 20 -1 2 -8 -1 -16 -7 -7 -6
-23 -8 -36 -5 -22 6 -22 7 10 21 32 14 32 16 11 20 -17 3 -21 7 -13 16 8 10
-1 18 -35 36 -31 15 -42 25 -34 30 9 6 7 11 -9 19 -22 12 -29 41 -10 41 6 0 7
5 2 13 -4 6 -8 44 -8 83 0 39 -5 77 -11 85 -9 10 -9 21 -1 39 l11 25 4 -27 c2
-16 8 -28 13 -28 5 0 9 -9 9 -20 0 -11 5 -20 11 -20 5 0 8 -4 4 -9 -3 -5 -1
-12 4 -15 5 -4 9 -23 8 -43 -2 -31 2 -39 31 -54 17 -10 32 -14 32 -9 0 5 15 6
33 3 27 -4 37 0 60 27 28 30 28 32 8 37 -27 7 -27 33 -1 108 17 51 44 95 57
95 2 0 1 -16 -3 -36z m787 -57 c51 -34 61 -61 55 -144 l-6 -72 32 1 c19 1 36
-6 44 -17 18 -25 8 -36 -22 -25 -28 11 -44 6 -44 -15 0 -7 -13 -27 -30 -45
-16 -18 -30 -37 -30 -42 0 -16 40 -67 62 -79 18 -9 19 -8 13 10 -5 16 -3 20 9
15 19 -7 31 -47 22 -70 -6 -16 -43 10 -140 99 -17 15 -36 27 -43 27 -15 0 -16
9 -4 29 6 9 6 22 0 33 -7 14 -6 18 5 18 10 0 13 6 9 17 -5 13 -2 15 15 11 18
-5 22 -2 22 17 0 12 9 43 21 69 27 63 15 103 -41 135 -22 12 -40 26 -40 30 0
28 47 28 91 -2z m144 -387 c18 -34 19 -56 4 -66 -15 -9 -28 13 -22 37 3 11 -2
28 -12 39 -16 18 -16 20 -2 20 9 0 23 -13 32 -30z m-238 -232 c-3 -8 -6 -5 -6
6 -1 11 2 17 5 13 3 -3 4 -12 1 -19z m388 -59 c10 -16 -27 -40 -43 -27 -10 8
-9 13 5 24 22 16 30 17 38 3z m-1092 -63 c4 -10 1 -13 -9 -9 -15 6 -19 23 -5
23 5 0 11 -7 14 -14z m117 -63 c0 -2 -9 1 -19 7 -26 14 -31 13 -25 -5 7 -18
-2 -19 -20 -3 -10 9 -10 17 -3 29 10 16 13 15 39 -4 15 -11 28 -22 28 -24z
m95 -43 c13 -6 15 -9 5 -9 -8 0 -22 4 -30 9 -18 12 -2 12 25 0z m644 -76 c2
-2 -7 -4 -22 -4 -14 0 -29 5 -32 10 -6 10 42 4 54 -6z"/>
<path d="M578 733 c7 -3 16 -2 19 1 4 3 -2 6 -13 5 -11 0 -14 -3 -6 -6z"/>
<path d="M646 460 c-22 -55 -20 -84 3 -40 25 48 34 80 23 80 -6 0 -17 -18 -26
-40z"/>
<path d="M1270 427 c0 -18 28 -42 37 -33 9 8 -9 38 -25 44 -7 2 -12 -3 -12
-11z"/>
<path d="M1160 330 c0 -36 40 -99 64 -100 12 0 -1 55 -20 85 -16 25 -44 34
-44 15z"/>
<path d="M1065 319 c-4 -6 -5 -12 -2 -15 2 -3 7 2 10 11 7 17 1 20 -8 4z"/>
<path d="M1337 313 c-7 -10 18 -131 28 -141 12 -11 -1 128 -13 140 -5 5 -12 6
-15 1z"/>
<path d="M975 290 c3 -5 8 -10 11 -10 2 0 4 5 4 10 0 6 -5 10 -11 10 -5 0 -7
-4 -4 -10z"/>
<path d="M1263 2553 c-58 -4 -63 -6 -62 -26 1 -17 2 -18 6 -4 3 13 15 17 50
17 48 0 52 -11 5 -18 -34 -4 -38 -8 -23 -26 11 -13 8 -16 -13 -22 -13 -3 -30
-3 -35 1 -6 3 -11 2 -11 -4 0 -6 -13 -8 -32 -5 -31 6 -32 6 -13 -9 20 -15 19
-15 -7 -22 -26 -7 -70 -45 -52 -45 5 0 -2 -9 -15 -19 -27 -21 -23 -51 7 -51
21 0 83 45 111 82 10 13 49 39 86 58 37 19 70 41 72 47 3 7 10 13 17 13 6 0
22 9 36 20 l25 20 -45 -2 c-25 -1 -73 -3 -107 -5z"/>
<path d="M2142 162 c-15 -16 -38 -48 -52 -72 -14 -24 -35 -54 -48 -67 l-23
-23 86 0 c94 0 90 -3 100 70 10 67 8 89 -5 105 -18 21 -28 19 -58 -13z"/>
</g>
</svg>
